<svg width="150" height="150" viewBox="0 0 150 150" fill="none" xmlns="http://www.w3.org/2000/svg">
<path d="M118.75 43.75V62.4375C118.75 62.4375 106.312 62.5 106.25 62.4375V43.75H87.5C87.5 43.75 87.5625 31.3125 87.5 31.25H106.25V12.5H118.75V31.25H137.5V43.75H118.75ZM100 68.75V50H81.25V31.25H31.25C24.375 31.25 18.75 36.875 18.75 43.75V118.75C18.75 125.625 24.375 131.25 31.25 131.25H106.25C113.125 131.25 118.75 125.625 118.75 118.75V68.75H100ZM31.25 118.75L50 93.75L62.5 112.5L81.25 87.5L106.25 118.75H31.25Z" fill="white"/>
</svg>
