<svg width="150" height="33" viewBox="0 0 150 33" fill="none" xmlns="http://www.w3.org/2000/svg">
<path d="M25.71 2.94V24H20.58V11.37L15.87 24H11.73L6.99 11.34V24H1.86V2.94H7.92L13.83 17.52L19.68 2.94H25.71ZM46.4991 7.26L35.9991 31.95H30.4791L34.3191 23.43L27.5091 7.26H33.2391L37.1091 17.73L40.9491 7.26H46.4991Z" fill="#42ABC0"/>
<path d="M61.4641 20.28H53.6041L52.3441 24H46.9741L54.5941 2.94H60.5341L68.1541 24H62.7241L61.4641 20.28ZM60.1441 16.32L57.5341 8.61L54.9541 16.32H60.1441ZM75.6033 1.8V24H70.4733V1.8H75.6033ZM84.4509 9.63C84.9309 8.85 85.6209 8.22 86.5209 7.74C87.4209 7.26 88.4509 7.02 89.6109 7.02C90.9909 7.02 92.2409 7.37 93.3609 8.07C94.4809 8.77 95.3609 9.77 96.0009 11.07C96.6609 12.37 96.9909 13.88 96.9909 15.6C96.9909 17.32 96.6609 18.84 96.0009 20.16C95.3609 21.46 94.4809 22.47 93.3609 23.19C92.2409 23.89 90.9909 24.24 89.6109 24.24C88.4309 24.24 87.4009 24.01 86.5209 23.55C85.6409 23.07 84.9509 22.44 84.4509 21.66V24H79.3209V1.8H84.4509V9.63ZM91.7709 15.6C91.7709 14.32 91.4109 13.32 90.6909 12.6C89.9909 11.86 89.1209 11.49 88.0809 11.49C87.0609 11.49 86.1909 11.86 85.4709 12.6C84.7709 13.34 84.4209 14.35 84.4209 15.63C84.4209 16.91 84.7709 17.92 85.4709 18.66C86.1909 19.4 87.0609 19.77 88.0809 19.77C89.1009 19.77 89.9709 19.4 90.6909 18.66C91.4109 17.9 91.7709 16.88 91.7709 15.6ZM116.212 7.26V24H111.082V21.72C110.562 22.46 109.852 23.06 108.952 23.52C108.072 23.96 107.092 24.18 106.012 24.18C104.732 24.18 103.602 23.9 102.622 23.34C101.642 22.76 100.882 21.93 100.342 20.85C99.8023 19.77 99.5323 18.5 99.5323 17.04V7.26H104.632V16.35C104.632 17.47 104.922 18.34 105.502 18.96C106.082 19.58 106.862 19.89 107.842 19.89C108.842 19.89 109.632 19.58 110.212 18.96C110.792 18.34 111.082 17.47 111.082 16.35V7.26H116.212ZM141.257 7.08C143.337 7.08 144.987 7.71 146.207 8.97C147.447 10.23 148.067 11.98 148.067 14.22V24H142.967V14.91C142.967 13.83 142.677 13 142.097 12.42C141.537 11.82 140.757 11.52 139.757 11.52C138.757 11.52 137.967 11.82 137.387 12.42C136.827 13 136.547 13.83 136.547 14.91V24H131.447V14.91C131.447 13.83 131.157 13 130.577 12.42C130.017 11.82 129.237 11.52 128.237 11.52C127.237 11.52 126.447 11.82 125.867 12.42C125.307 13 125.027 13.83 125.027 14.91V24H119.897V7.26H125.027V9.36C125.547 8.66 126.227 8.11 127.067 7.71C127.907 7.29 128.857 7.08 129.917 7.08C131.177 7.08 132.297 7.35 133.277 7.89C134.277 8.43 135.057 9.2 135.617 10.2C136.197 9.28 136.987 8.53 137.987 7.95C138.987 7.37 140.077 7.08 141.257 7.08Z" fill="#49183A"/>
<path d="M25.71 2.94H26.71V1.94H25.71V2.94ZM25.71 24V25H26.71V24H25.71ZM20.58 24H19.58V25H20.58V24ZM20.58 11.37H21.58L19.643 11.0206L20.58 11.37ZM15.87 24V25H16.5644L16.807 24.3494L15.87 24ZM11.73 24L10.7935 24.3506L11.0366 25H11.73V24ZM6.99 11.34L7.92651 10.9894L5.99 11.34H6.99ZM6.99 24V25H7.99V24H6.99ZM1.86 24H0.86V25H1.86V24ZM1.86 2.94V1.94H0.86V2.94H1.86ZM7.92 2.94L8.84676 2.56434L8.59368 1.94H7.92V2.94ZM13.83 17.52L12.9032 17.8957L13.8347 20.1936L14.7581 17.8924L13.83 17.52ZM19.68 2.94V1.94H19.0037L18.7519 2.56762L19.68 2.94ZM24.71 2.94V24H26.71V2.94H24.71ZM25.71 23H20.58V25H25.71V23ZM21.58 24V11.37H19.58V24H21.58ZM19.643 11.0206L14.933 23.6506L16.807 24.3494L21.517 11.7194L19.643 11.0206ZM15.87 23H11.73V25H15.87V23ZM12.6665 23.6494L7.92651 10.9894L6.05349 11.6906L10.7935 24.3506L12.6665 23.6494ZM5.99 11.34V24H7.99V11.34H5.99ZM6.99 23H1.86V25H6.99V23ZM2.86 24V2.94H0.86V24H2.86ZM1.86 3.94H7.92V1.94H1.86V3.94ZM6.99324 3.31566L12.9032 17.8957L14.7568 17.1443L8.84676 2.56434L6.99324 3.31566ZM14.7581 17.8924L20.6081 3.31238L18.7519 2.56762L12.9019 17.1476L14.7581 17.8924ZM19.68 3.94H25.71V1.94H19.68V3.94ZM46.4991 7.26L47.4193 7.65135L48.011 6.26H46.4991V7.26ZM35.9991 31.95V32.95H36.6605L36.9193 32.3414L35.9991 31.95ZM30.4791 31.95L29.5674 31.5391L28.9315 32.95H30.4791V31.95ZM34.3191 23.43L35.2307 23.8409L35.4098 23.4435L35.2407 23.0419L34.3191 23.43ZM27.5091 7.26V6.26H26.0028L26.5875 7.64813L27.5091 7.26ZM33.2391 7.26L34.177 6.9133L33.9356 6.26H33.2391V7.26ZM37.1091 17.73L36.1711 18.0767L37.1127 20.6242L38.0479 18.0743L37.1091 17.73ZM40.9491 7.26V6.26H40.2507L40.0102 6.91567L40.9491 7.26ZM45.5788 6.86865L35.0788 31.5586L36.9193 32.3414L47.4193 7.65135L45.5788 6.86865ZM35.9991 30.95H30.4791V32.95H35.9991V30.95ZM31.3907 32.3609L35.2307 23.8409L33.4074 23.0191L29.5674 31.5391L31.3907 32.3609ZM35.2407 23.0419L28.4307 6.87187L26.5875 7.64813L33.3975 23.8181L35.2407 23.0419ZM27.5091 8.26H33.2391V6.26H27.5091V8.26ZM32.3011 7.6067L36.1711 18.0767L38.047 17.3833L34.177 6.9133L32.3011 7.6067ZM38.0479 18.0743L41.8879 7.60433L40.0102 6.91567L36.1702 17.3857L38.0479 18.0743ZM40.9491 8.26H46.4991V6.26H40.9491V8.26ZM61.4641 20.28L62.4113 19.9592L62.1812 19.28H61.4641V20.28ZM53.6041 20.28V19.28H52.887L52.657 19.9592L53.6041 20.28ZM52.3441 24V25H53.0612L53.2913 24.3208L52.3441 24ZM46.9741 24L46.0338 23.6598L45.5489 25H46.9741V24ZM54.5941 2.94V1.94H53.8925L53.6538 2.59976L54.5941 2.94ZM60.5341 2.94L61.4745 2.59976L61.2358 1.94H60.5341V2.94ZM68.1541 24V25H69.5794L69.0945 23.6598L68.1541 24ZM62.7241 24L61.777 24.3208L62.007 25H62.7241V24ZM60.1441 16.32V17.32H61.5384L61.0913 15.9994L60.1441 16.32ZM57.5341 8.61L58.4813 8.28935L57.5287 5.47512L56.5858 8.29267L57.5341 8.61ZM54.9541 16.32L54.0058 16.0027L53.565 17.32H54.9541V16.32ZM61.4641 19.28H53.6041V21.28H61.4641V19.28ZM52.657 19.9592L51.397 23.6792L53.2913 24.3208L54.5513 20.6008L52.657 19.9592ZM52.3441 23H46.9741V25H52.3441V23ZM47.9145 24.3402L55.5345 3.28024L53.6538 2.59976L46.0338 23.6598L47.9145 24.3402ZM54.5941 3.94H60.5341V1.94H54.5941V3.94ZM59.5938 3.28024L67.2138 24.3402L69.0945 23.6598L61.4745 2.59976L59.5938 3.28024ZM68.1541 23H62.7241V25H68.1541V23ZM63.6713 23.6792L62.4113 19.9592L60.517 20.6008L61.777 24.3208L63.6713 23.6792ZM61.0913 15.9994L58.4813 8.28935L56.5869 8.93065L59.1969 16.6406L61.0913 15.9994ZM56.5858 8.29267L54.0058 16.0027L55.9025 16.6373L58.4825 8.92733L56.5858 8.29267ZM54.9541 17.32H60.1441V15.32H54.9541V17.32ZM75.6033 1.8H76.6033V0.799999H75.6033V1.8ZM75.6033 24V25H76.6033V24H75.6033ZM70.4733 24H69.4733V25H70.4733V24ZM70.4733 1.8V0.799999H69.4733V1.8H70.4733ZM74.6033 1.8V24H76.6033V1.8H74.6033ZM75.6033 23H70.4733V25H75.6033V23ZM71.4733 24V1.8H69.4733V24H71.4733ZM70.4733 2.8H75.6033V0.799999H70.4733V2.8ZM84.4509 9.63H83.4509V13.163L85.3026 10.1541L84.4509 9.63ZM86.5209 7.74L86.0503 6.85765V6.85765L86.5209 7.74ZM93.3609 8.07L92.8309 8.918L93.3609 8.07ZM96.0009 11.07L95.1037 11.5117L95.1093 11.5227L96.0009 11.07ZM96.0009 20.16L95.1065 19.7128L95.1038 19.7183L96.0009 20.16ZM93.3609 23.19L93.891 24.0381L93.9017 24.0312L93.3609 23.19ZM86.5209 23.55L86.0421 24.4279L86.0499 24.4321L86.0577 24.4362L86.5209 23.55ZM84.4509 21.66L85.2928 21.1203L83.4509 18.247V21.66H84.4509ZM84.4509 24V25H85.4509V24H84.4509ZM79.3209 24H78.3209V25H79.3209V24ZM79.3209 1.8V0.799999H78.3209V1.8H79.3209ZM84.4509 1.8H85.4509V0.799999H84.4509V1.8ZM90.6909 12.6L89.9645 13.2872L89.974 13.2973L89.9838 13.3071L90.6909 12.6ZM85.4709 12.6L84.7541 11.9026L84.7445 11.9128L85.4709 12.6ZM85.4709 18.66L84.7444 19.3473L84.7542 19.3574L85.4709 18.66ZM90.6909 18.66L91.4077 19.3574L91.4169 19.3477L90.6909 18.66ZM85.3026 10.1541C85.6793 9.54189 86.2298 9.02858 86.9915 8.62235L86.0503 6.85765C85.012 7.41142 84.1825 8.15811 83.5993 9.1059L85.3026 10.1541ZM86.9915 8.62235C87.7279 8.22964 88.5923 8.02 89.6109 8.02V6.02C88.3096 6.02 87.114 6.29035 86.0503 6.85765L86.9915 8.62235ZM89.6109 8.02C90.8123 8.02 91.8772 8.3219 92.8309 8.918L93.8909 7.222C92.6047 6.41809 91.1695 6.02 89.6109 6.02V8.02ZM92.8309 8.918C93.778 9.5099 94.5377 10.3619 95.1038 11.5117L96.8981 10.6283C96.1842 9.17812 95.1839 8.0301 93.8909 7.222L92.8309 8.918ZM95.1093 11.5227C95.6863 12.6593 95.9909 14.0092 95.9909 15.6H97.9909C97.9909 13.7508 97.6356 12.0807 96.8926 10.6173L95.1093 11.5227ZM95.9909 15.6C95.9909 17.1904 95.6865 18.5529 95.1065 19.7128L96.8954 20.6072C97.6354 19.1271 97.9909 17.4496 97.9909 15.6H95.9909ZM95.1038 19.7183C94.5367 20.8701 93.7739 21.7357 92.8202 22.3488L93.9017 24.0312C95.188 23.2043 96.1852 22.0499 96.8981 20.6017L95.1038 19.7183ZM92.8309 22.342C91.8772 22.9381 90.8123 23.24 89.6109 23.24V25.24C91.1695 25.24 92.6047 24.8419 93.8909 24.038L92.8309 22.342ZM89.6109 23.24C88.562 23.24 87.6966 23.0362 86.9842 22.6638L86.0577 24.4362C87.1053 24.9838 88.2999 25.24 89.6109 25.24V23.24ZM86.9998 22.6721C86.2549 22.2658 85.6948 21.7474 85.2928 21.1203L83.6091 22.1997C84.2071 23.1326 85.027 23.8742 86.0421 24.4279L86.9998 22.6721ZM83.4509 21.66V24H85.4509V21.66H83.4509ZM84.4509 23H79.3209V25H84.4509V23ZM80.3209 24V1.8H78.3209V24H80.3209ZM79.3209 2.8H84.4509V0.799999H79.3209V2.8ZM83.4509 1.8V9.63H85.4509V1.8H83.4509ZM92.7709 15.6C92.7709 14.1267 92.3509 12.8458 91.398 11.8929L89.9838 13.3071C90.4709 13.7942 90.7709 14.5133 90.7709 15.6H92.7709ZM91.4174 11.9128C90.5241 10.9684 89.3893 10.49 88.0809 10.49V12.49C88.8526 12.49 89.4578 12.7516 89.9645 13.2872L91.4174 11.9128ZM88.0809 10.49C86.7873 10.49 85.6599 10.9718 84.7542 11.9026L86.1877 13.2974C86.722 12.7482 87.3346 12.49 88.0809 12.49V10.49ZM84.7445 11.9128C83.8268 12.8829 83.4209 14.163 83.4209 15.63H85.4209C85.4209 14.537 85.7151 13.7971 86.1974 13.2872L84.7445 11.9128ZM83.4209 15.63C83.4209 17.097 83.8268 18.3771 84.7445 19.3472L86.1974 17.9728C85.7151 17.4629 85.4209 16.723 85.4209 15.63H83.4209ZM84.7542 19.3574C85.6599 20.2882 86.7873 20.77 88.0809 20.77V18.77C87.3346 18.77 86.722 18.5118 86.1877 17.9626L84.7542 19.3574ZM88.0809 20.77C89.3746 20.77 90.502 20.2882 91.4077 19.3574L89.9742 17.9626C89.4399 18.5118 88.8273 18.77 88.0809 18.77V20.77ZM91.4169 19.3477C92.3503 18.3625 92.7709 17.0758 92.7709 15.6H90.7709C90.7709 16.6842 90.4716 17.4375 89.965 17.9723L91.4169 19.3477ZM116.212 7.26H117.212V6.26H116.212V7.26ZM116.212 24V25H117.212V24H116.212ZM111.082 24H110.082V25H111.082V24ZM111.082 21.72H112.082V18.5576L110.264 21.1451L111.082 21.72ZM108.952 23.52L109.399 24.4145L109.407 24.4104L108.952 23.52ZM102.622 23.34L102.113 24.2006L102.12 24.2045L102.126 24.2082L102.622 23.34ZM100.342 20.85L99.4478 21.2972L100.342 20.85ZM99.5323 7.26V6.26H98.5323V7.26H99.5323ZM104.632 7.26H105.632V6.26H104.632V7.26ZM105.502 18.96L104.772 19.6432L105.502 18.96ZM111.082 7.26V6.26H110.082V7.26H111.082ZM115.212 7.26V24H117.212V7.26H115.212ZM116.212 23H111.082V25H116.212V23ZM112.082 24V21.72H110.082V24H112.082ZM110.264 21.1451C109.848 21.7369 109.27 22.2348 108.497 22.6296L109.407 24.4104C110.435 23.8852 111.276 23.1831 111.9 22.2949L110.264 21.1451ZM108.505 22.6256C107.777 22.9896 106.952 23.18 106.012 23.18V25.18C107.232 25.18 108.367 24.9304 109.399 24.4144L108.505 22.6256ZM106.012 23.18C104.883 23.18 103.928 22.9344 103.118 22.4718L102.126 24.2082C103.277 24.8656 104.582 25.18 106.012 25.18V23.18ZM103.132 22.4794C102.327 22.0033 101.696 21.3217 101.237 20.4028L99.4478 21.2972C100.068 22.5383 100.957 23.5167 102.113 24.2006L103.132 22.4794ZM101.237 20.4028C100.779 19.4877 100.532 18.3768 100.532 17.04H98.5323C98.5323 18.6232 98.8254 20.0523 99.4478 21.2972L101.237 20.4028ZM100.532 17.04V7.26H98.5323V17.04H100.532ZM99.5323 8.26H104.632V6.26H99.5323V8.26ZM103.632 7.26V16.35H105.632V7.26H103.632ZM103.632 16.35C103.632 17.6406 103.969 18.785 104.772 19.6432L106.233 18.2768C105.875 17.895 105.632 17.2994 105.632 16.35H103.632ZM104.772 19.6432C105.571 20.4971 106.632 20.89 107.842 20.89V18.89C107.092 18.89 106.594 18.6629 106.233 18.2768L104.772 19.6432ZM107.842 20.89C109.065 20.89 110.14 20.5013 110.943 19.6432L109.482 18.2768C109.125 18.6587 108.619 18.89 107.842 18.89V20.89ZM110.943 19.6432C111.745 18.785 112.082 17.6406 112.082 16.35H110.082C110.082 17.2994 109.839 17.895 109.482 18.2768L110.943 19.6432ZM112.082 16.35V7.26H110.082V16.35H112.082ZM111.082 8.26H116.212V6.26H111.082V8.26ZM146.207 8.97L145.489 9.66563L145.494 9.67142L146.207 8.97ZM148.067 24V25H149.067V24H148.067ZM142.967 24H141.967V25H142.967V24ZM142.097 12.42L141.366 13.1023L141.378 13.1149L141.39 13.1271L142.097 12.42ZM137.387 12.42L136.668 11.725L136.668 11.7254L137.387 12.42ZM136.547 24V25H137.547V24H136.547ZM131.447 24H130.447V25H131.447V24ZM130.577 12.42L129.846 13.1023L129.858 13.1149L129.87 13.1271L130.577 12.42ZM125.867 12.42L125.148 11.725L125.148 11.7254L125.867 12.42ZM125.027 24V25H126.027V24H125.027ZM119.897 24H118.897V25H119.897V24ZM119.897 7.26V6.26H118.897V7.26H119.897ZM125.027 7.26H126.027V6.26H125.027V7.26ZM125.027 9.36H124.027V12.3831L125.83 9.95632L125.027 9.36ZM127.067 7.71L127.497 8.61286L127.506 8.60873L127.514 8.60443L127.067 7.71ZM133.277 7.89L132.794 8.76587L132.802 8.76991L133.277 7.89ZM135.617 10.2L134.745 10.6886L135.566 12.1558L136.463 10.7333L135.617 10.2ZM137.987 7.95L137.485 7.08497L137.987 7.95ZM141.257 8.08C143.121 8.08 144.492 8.63605 145.489 9.66561L146.926 8.27439C145.482 6.78395 143.554 6.08 141.257 6.08V8.08ZM145.494 9.67142C146.504 10.6978 147.067 12.1689 147.067 14.22H149.067C149.067 11.7911 148.39 9.76221 146.92 8.26857L145.494 9.67142ZM147.067 14.22V24H149.067V14.22H147.067ZM148.067 23H142.967V25H148.067V23ZM143.967 24V14.91H141.967V24H143.967ZM143.967 14.91C143.967 13.6519 143.626 12.5342 142.804 11.7129L141.39 13.1271C141.729 13.4658 141.967 14.0081 141.967 14.91H143.967ZM142.828 11.7377C142.039 10.8919 140.969 10.52 139.757 10.52V12.52C140.545 12.52 141.035 12.7481 141.366 13.1023L142.828 11.7377ZM139.757 10.52C138.544 10.52 137.473 10.892 136.668 11.725L138.106 13.115C138.461 12.748 138.97 12.52 139.757 12.52V10.52ZM136.668 11.7254C135.873 12.548 135.547 13.6611 135.547 14.91H137.547C137.547 13.9989 137.781 13.452 138.107 13.1146L136.668 11.7254ZM135.547 14.91V24H137.547V14.91H135.547ZM136.547 23H131.447V25H136.547V23ZM132.447 24V14.91H130.447V24H132.447ZM132.447 14.91C132.447 13.6519 132.105 12.5342 131.284 11.7129L129.87 13.1271C130.209 13.4658 130.447 14.0081 130.447 14.91H132.447ZM131.308 11.7377C130.519 10.8919 129.449 10.52 128.237 10.52V12.52C129.025 12.52 129.516 12.7481 129.846 13.1023L131.308 11.7377ZM128.237 10.52C127.024 10.52 125.953 10.892 125.148 11.725L126.586 13.115C126.941 12.748 127.45 12.52 128.237 12.52V10.52ZM125.148 11.7254C124.353 12.548 124.027 13.6611 124.027 14.91H126.027C126.027 13.9989 126.261 13.452 126.587 13.1146L125.148 11.7254ZM124.027 14.91V24H126.027V14.91H124.027ZM125.027 23H119.897V25H125.027V23ZM120.897 24V7.26H118.897V24H120.897ZM119.897 8.26H125.027V6.26H119.897V8.26ZM124.027 7.26V9.36H126.027V7.26H124.027ZM125.83 9.95632C126.246 9.39615 126.794 8.94749 127.497 8.61286L126.637 6.80714C125.66 7.27251 124.848 7.92385 124.224 8.76367L125.83 9.95632ZM127.514 8.60443C128.199 8.26233 128.992 8.08 129.917 8.08V6.08C128.722 6.08 127.616 6.31767 126.62 6.81557L127.514 8.60443ZM129.917 8.08C131.03 8.08 131.98 8.31712 132.795 8.76584L133.76 7.01416C132.614 6.38288 131.324 6.08 129.917 6.08V8.08ZM132.802 8.76991C133.634 9.21898 134.276 9.85259 134.745 10.6886L136.49 9.7114C135.838 8.54741 134.921 7.64101 133.752 7.01009L132.802 8.76991ZM136.463 10.7333C136.951 9.95867 137.62 9.31916 138.489 8.81503L137.485 7.08497C136.355 7.74084 135.443 8.60133 134.771 9.6667L136.463 10.7333ZM138.489 8.81503C139.333 8.32534 140.249 8.08 141.257 8.08V6.08C139.905 6.08 138.641 6.41466 137.485 7.08497L138.489 8.81503Z" fill="black"/>
</svg>
