<svg width="208" height="208" viewBox="0 0 208 208" fill="none" xmlns="http://www.w3.org/2000/svg">
<g filter="url(#filter0_d)">
<rect x="4" width="200" height="200" rx="100" fill="#222B65"/>
</g>
<path d="M133.167 62.5H115.75C114 57.6667 109.417 54.1667 104 54.1667C98.5833 54.1667 94 57.6667 92.25 62.5H74.8333C70.25 62.5 66.5 66.25 66.5 70.8333V129.167C66.5 133.75 70.25 137.5 74.8333 137.5H133.167C137.75 137.5 141.5 133.75 141.5 129.167V70.8333C141.5 66.25 137.75 62.5 133.167 62.5ZM104 62.5C106.292 62.5 108.167 64.375 108.167 66.6667C108.167 68.9583 106.292 70.8333 104 70.8333C101.708 70.8333 99.8333 68.9583 99.8333 66.6667C99.8333 64.375 101.708 62.5 104 62.5ZM104 79.1667C110.917 79.1667 116.5 84.75 116.5 91.6667C116.5 98.5833 110.917 104.167 104 104.167C97.0833 104.167 91.5 98.5833 91.5 91.6667C91.5 84.75 97.0833 79.1667 104 79.1667ZM129 129.167H79V123.333C79 115 95.6667 110.417 104 110.417C112.333 110.417 129 115 129 123.333V129.167Z" fill="white"/>
<defs>
<filter id="filter0_d" x="0" y="0" width="208" height="208" filterUnits="userSpaceOnUse" color-interpolation-filters="sRGB">
<feFlood flood-opacity="0" result="BackgroundImageFix"/>
<feColorMatrix in="SourceAlpha" type="matrix" values="0 0 0 0 0 0 0 0 0 0 0 0 0 0 0 0 0 0 127 0"/>
<feOffset dy="4"/>
<feGaussianBlur stdDeviation="2"/>
<feColorMatrix type="matrix" values="0 0 0 0 0 0 0 0 0 0 0 0 0 0 0 0 0 0 0.25 0"/>
<feBlend mode="normal" in2="BackgroundImageFix" result="effect1_dropShadow"/>
<feBlend mode="normal" in="SourceGraphic" in2="effect1_dropShadow" result="shape"/>
</filter>
</defs>
</svg>
